<svg width="18" height="18" viewBox="0 0 18 18" fill="none" xmlns="http://www.w3.org/2000/svg">
<g id="add-user-add-svgrepo-com 1" clip-path="url(#clip0_12_5976)">
<g id="Group">
<g id="Group_2">
<path id="Vector" d="M10.5622 9.05621C9.65005 10.0161 8.43094 10.5987 7.09571 10.5987C5.76051 10.5987 4.54139 10.0161 3.62923 9.05621C2.02551 10.0665 0.89316 11.7568 0.637714 13.7227C0.57939 14.1717 0.929195 14.5702 1.38306 14.5702H9.32296C9.32296 12.6939 10.4483 11.0756 12.0594 10.3545C11.6302 9.84955 11.1253 9.41098 10.5622 9.05621Z" fill="white"/>
</g>
</g>
<g id="Group_3">
<g id="Group_4">
<path id="Vector_2" d="M7.09545 9.41259C9.27452 9.41259 11.041 7.30551 11.041 4.70629C11.041 2.10708 9.27452 0 7.09545 0C4.91639 0 3.1499 2.10708 3.1499 4.70629C3.1499 7.30551 4.91639 9.41259 7.09545 9.41259Z" fill="white"/>
</g>
</g>
<g id="Group_5">
<g id="Group_6">
<path id="Vector_3" d="M13.9388 11.1406C12.0476 11.1406 10.509 12.6791 10.509 14.5703C10.509 16.4615 12.0476 18.0001 13.9388 18.0001C15.8299 18.0001 17.3685 16.4615 17.3685 14.5703C17.3685 12.6791 15.83 11.1406 13.9388 11.1406ZM15.2998 15.1635H14.532V15.9313C14.532 16.2589 14.2664 16.5245 13.9388 16.5245C13.6112 16.5245 13.3457 16.2589 13.3457 15.9313V15.1635H12.5778C12.2502 15.1635 11.9846 14.8979 11.9846 14.5703C11.9846 14.2427 12.2502 13.9772 12.5778 13.9772H13.3457V13.2093C13.3457 12.8817 13.6112 12.6162 13.9388 12.6162C14.2664 12.6162 14.532 12.8817 14.532 13.2093V13.9772H15.2998C15.6274 13.9772 15.893 14.2428 15.893 14.5703C15.893 14.8979 15.6274 15.1635 15.2998 15.1635Z" fill="white"/>
</g>
</g>
</g>
<defs>
<clipPath id="clip0_12_5976">
<rect width="18" height="18" fill="white"/>
</clipPath>
</defs>
</svg>
