<svg width="102" height="22" viewBox="0 0 102 22" fill="none" xmlns="http://www.w3.org/2000/svg">
<circle cx="10" cy="10.5" r="9.33333" fill="#6AB716" stroke="#62BA01" stroke-width="1.33333"/>
<path fill-rule="evenodd" clip-rule="evenodd" d="M9.5 7V10.5H6V11.5H9.5V15H10.5V11.5H14V10.5H10.5V7H9.5Z" fill="white"/>
<path d="M35.958 13.638H32.066L31.422 15.5H29.364L32.878 5.714H35.16L38.674 15.5H36.602L35.958 13.638ZM35.426 12.07L34.012 7.982L32.598 12.07H35.426ZM39.4835 11.594C39.4835 10.81 39.6375 10.1147 39.9455 9.508C40.2628 8.90133 40.6922 8.43467 41.2335 8.108C41.7748 7.78133 42.3768 7.618 43.0395 7.618C43.5435 7.618 44.0242 7.73 44.4815 7.954C44.9388 8.16867 45.3028 8.458 45.5735 8.822V5.14H47.5615V15.5H45.5735V14.352C45.3308 14.7347 44.9902 15.0427 44.5515 15.276C44.1128 15.5093 43.6042 15.626 43.0255 15.626C42.3722 15.626 41.7748 15.458 41.2335 15.122C40.6922 14.786 40.2628 14.3147 39.9455 13.708C39.6375 13.092 39.4835 12.3873 39.4835 11.594ZM45.5875 11.622C45.5875 11.146 45.4942 10.74 45.3075 10.404C45.1208 10.0587 44.8688 9.79733 44.5515 9.62C44.2342 9.43333 43.8935 9.34 43.5295 9.34C43.1655 9.34 42.8295 9.42867 42.5215 9.606C42.2135 9.78333 41.9615 10.0447 41.7655 10.39C41.5788 10.726 41.4855 11.1273 41.4855 11.594C41.4855 12.0607 41.5788 12.4713 41.7655 12.826C41.9615 13.1713 42.2135 13.4373 42.5215 13.624C42.8388 13.8107 43.1748 13.904 43.5295 13.904C43.8935 13.904 44.2342 13.8153 44.5515 13.638C44.8688 13.4513 45.1208 13.19 45.3075 12.854C45.4942 12.5087 45.5875 12.098 45.5875 11.622ZM48.9718 11.594C48.9718 10.81 49.1258 10.1147 49.4338 9.508C49.7511 8.90133 50.1804 8.43467 50.7218 8.108C51.2631 7.78133 51.8651 7.618 52.5278 7.618C53.0318 7.618 53.5124 7.73 53.9698 7.954C54.4271 8.16867 54.7911 8.458 55.0618 8.822V5.14H57.0498V15.5H55.0618V14.352C54.8191 14.7347 54.4784 15.0427 54.0398 15.276C53.6011 15.5093 53.0924 15.626 52.5138 15.626C51.8604 15.626 51.2631 15.458 50.7218 15.122C50.1804 14.786 49.7511 14.3147 49.4338 13.708C49.1258 13.092 48.9718 12.3873 48.9718 11.594ZM55.0758 11.622C55.0758 11.146 54.9824 10.74 54.7958 10.404C54.6091 10.0587 54.3571 9.79733 54.0398 9.62C53.7224 9.43333 53.3818 9.34 53.0178 9.34C52.6538 9.34 52.3178 9.42867 52.0098 9.606C51.7018 9.78333 51.4498 10.0447 51.2538 10.39C51.0671 10.726 50.9738 11.1273 50.9738 11.594C50.9738 12.0607 51.0671 12.4713 51.2538 12.826C51.4498 13.1713 51.7018 13.4373 52.0098 13.624C52.3271 13.8107 52.6631 13.904 53.0178 13.904C53.3818 13.904 53.7224 13.8153 54.0398 13.638C54.3571 13.4513 54.6091 13.19 54.7958 12.854C54.9824 12.5087 55.0758 12.098 55.0758 11.622ZM70.658 15.5H68.698L64.26 8.794V15.5H62.3V5.714H64.26L68.698 12.434V5.714H70.658V15.5ZM79.8049 11.454C79.8049 11.734 79.7862 11.986 79.7489 12.21H74.0789C74.1256 12.77 74.3216 13.2087 74.6669 13.526C75.0122 13.8433 75.4369 14.002 75.9409 14.002C76.6689 14.002 77.1869 13.6893 77.4949 13.064H79.6089C79.3849 13.8107 78.9556 14.4267 78.3209 14.912C77.6862 15.388 76.9069 15.626 75.9829 15.626C75.2362 15.626 74.5642 15.4627 73.9669 15.136C73.3789 14.8 72.9169 14.3287 72.5809 13.722C72.2542 13.1153 72.0909 12.4153 72.0909 11.622C72.0909 10.8193 72.2542 10.1147 72.5809 9.508C72.9076 8.90133 73.3649 8.43467 73.9529 8.108C74.5409 7.78133 75.2176 7.618 75.9829 7.618C76.7202 7.618 77.3782 7.77667 77.9569 8.094C78.5449 8.41133 78.9976 8.864 79.3149 9.452C79.6416 10.0307 79.8049 10.698 79.8049 11.454ZM77.7749 10.894C77.7656 10.39 77.5836 9.98867 77.2289 9.69C76.8742 9.382 76.4402 9.228 75.9269 9.228C75.4416 9.228 75.0309 9.37733 74.6949 9.676C74.3682 9.96533 74.1676 10.3713 74.0929 10.894H77.7749ZM91.9875 7.744L89.7195 15.5H87.6055L86.1915 10.082L84.7775 15.5H82.6495L80.3675 7.744H82.3555L83.7275 13.652L85.2115 7.744H87.2835L88.7395 13.638L90.1115 7.744H91.9875Z" fill="#6AB716"/>
</svg>
