<svg width="20" height="20" viewBox="0 0 20 20" fill="none" xmlns="http://www.w3.org/2000/svg">
<g id="18103916541556277212 1" clip-path="url(#clip0_12_6084)">
<g id="Icons">
<g id="Rounded">
<g id="Device">
<g id="-Round-/-Device-/-add_alarm">
<g id="Group">
<path id="&#240;&#159;&#148;&#185;Icon-Color" fill-rule="evenodd" clip-rule="evenodd" d="M13 10H11V8.00002C11 7.45002 10.55 7.00002 10 7.00002C9.45001 7.00002 9.00001 7.45002 9.00001 8.00002V10H7.00001C6.45001 10 6.00001 10.45 6.00001 11C6.00001 11.55 6.45001 12 7.00001 12H9.00001V14C9.00001 14.55 9.45001 15 10 15C10.55 15 11 14.55 11 14V12H13C13.55 12 14 11.55 14 11C14 10.45 13.55 10 13 10ZM19.18 3.01002L16.1 0.450018C15.68 0.100018 15.05 0.150018 14.69 0.580018C14.34 1.00002 14.4 1.63002 14.82 1.99002L17.89 4.55002C18.31 4.90002 18.94 4.85002 19.3 4.42002C19.66 4.00002 19.6 3.37002 19.18 3.01002ZM2.10001 4.55002L5.17001 1.99002C5.60001 1.63002 5.66001 1.00002 5.30001 0.580018C4.95001 0.150018 4.32001 0.100018 3.90001 0.450018L0.820006 3.01002C0.400006 3.37002 0.340006 4.00002 0.700006 4.42002C1.05001 4.85002 1.68001 4.90002 2.10001 4.55002ZM10 2.00002C5.03001 2.00002 1.00001 6.03002 1.00001 11C1.00001 15.97 5.03001 20 10 20C14.97 20 19 15.97 19 11C19 6.03002 14.97 2.00002 10 2.00002ZM10 18C6.14001 18 3.00001 14.86 3.00001 11C3.00001 7.14002 6.14001 4.00002 10 4.00002C13.86 4.00002 17 7.14002 17 11C17 14.86 13.86 18 10 18Z" fill="white"/>
</g>
</g>
</g>
</g>
</g>
</g>
<defs>
<clipPath id="clip0_12_6084">
<rect width="20" height="20" fill="white"/>
</clipPath>
</defs>
</svg>
