<svg width="18" height="18" viewBox="0 0 18 18" fill="none" xmlns="http://www.w3.org/2000/svg">
<g id="svgexport-17 (25) 1">
<g id="Group">
<g id="Layer 51">
<path id="Vector" d="M12.9375 1.125H5.0625C4.61495 1.125 4.18572 1.30279 3.86926 1.61926C3.55279 1.93572 3.375 2.36495 3.375 2.8125V12.9375C3.375 13.3851 3.55279 13.8143 3.86926 14.1307C4.18572 14.4472 4.61495 14.625 5.0625 14.625H12.9375C13.3851 14.625 13.8143 14.4472 14.1307 14.1307C14.4472 13.8143 14.625 13.3851 14.625 12.9375V2.8125C14.625 2.36495 14.4472 1.93572 14.1307 1.61926C13.8143 1.30279 13.3851 1.125 12.9375 1.125ZM13.5 12.9375C13.5 13.0867 13.4407 13.2298 13.3352 13.3352C13.2298 13.4407 13.0867 13.5 12.9375 13.5H5.0625C4.91332 13.5 4.77024 13.4407 4.66475 13.3352C4.55926 13.2298 4.5 13.0867 4.5 12.9375V2.8125C4.5 2.66332 4.55926 2.52024 4.66475 2.41475C4.77024 2.30926 4.91332 2.25 5.0625 2.25H12.9375C13.0867 2.25 13.2298 2.30926 13.3352 2.41475C13.4407 2.52024 13.5 2.66332 13.5 2.8125V12.9375Z" fill="white"/>
<path id="Vector_2" d="M11.8125 15.75H2.8125C2.66332 15.75 2.52024 15.6907 2.41475 15.5852C2.30926 15.4798 2.25 15.3367 2.25 15.1875V3.9375C2.25 3.78832 2.19074 3.64524 2.08525 3.53975C1.97976 3.43426 1.83668 3.375 1.6875 3.375C1.53832 3.375 1.39524 3.43426 1.28975 3.53975C1.18426 3.64524 1.125 3.78832 1.125 3.9375V15.1875C1.125 15.6351 1.30279 16.0643 1.61926 16.3807C1.93572 16.6972 2.36495 16.875 2.8125 16.875H11.8125C11.9617 16.875 12.1048 16.8157 12.2102 16.7102C12.3157 16.6048 12.375 16.4617 12.375 16.3125C12.375 16.1633 12.3157 16.0202 12.2102 15.9148C12.1048 15.8093 11.9617 15.75 11.8125 15.75ZM11.25 7.3125H9.5625V5.625C9.5625 5.47582 9.50324 5.33274 9.39775 5.22725C9.29226 5.12176 9.14918 5.0625 9 5.0625C8.85082 5.0625 8.70774 5.12176 8.60225 5.22725C8.49676 5.33274 8.4375 5.47582 8.4375 5.625V7.3125H6.75C6.60082 7.3125 6.45774 7.37176 6.35225 7.47725C6.24676 7.58274 6.1875 7.72582 6.1875 7.875C6.1875 8.02418 6.24676 8.16726 6.35225 8.27275C6.45774 8.37824 6.60082 8.4375 6.75 8.4375H8.4375V10.125C8.4375 10.2742 8.49676 10.4173 8.60225 10.5227C8.70774 10.6282 8.85082 10.6875 9 10.6875C9.14918 10.6875 9.29226 10.6282 9.39775 10.5227C9.50324 10.4173 9.5625 10.2742 9.5625 10.125V8.4375H11.25C11.3992 8.4375 11.5423 8.37824 11.6477 8.27275C11.7532 8.16726 11.8125 8.02418 11.8125 7.875C11.8125 7.72582 11.7532 7.58274 11.6477 7.47725C11.5423 7.37176 11.3992 7.3125 11.25 7.3125Z" fill="white"/>
</g>
</g>
</g>
</svg>
