<svg width="35" height="35" viewBox="0 0 35 35" fill="none" xmlns="http://www.w3.org/2000/svg">
<path d="M22.7389 4.4141C21.4086 2.97787 19.5506 2.18695 17.4998 2.18695C15.4381 2.18695 13.5739 2.97308 12.2498 4.40043C10.9113 5.84349 10.2592 7.80472 10.4123 9.9225C10.7158 14.1006 13.8952 17.4994 17.4998 17.4994C21.1044 17.4994 24.2783 14.1013 24.5866 9.92386C24.7418 7.82523 24.0856 5.8681 22.7389 4.4141Z" fill="#696969"/>
<path d="M29.5311 32.8104H5.46865C5.1537 32.8145 4.84179 32.7484 4.55562 32.6167C4.26945 32.4851 4.01622 32.2914 3.81436 32.0496C3.37002 31.5184 3.19092 30.7931 3.32354 30.0596C3.90049 26.8591 5.70107 24.1705 8.53115 22.2831C11.0454 20.6076 14.2303 19.6854 17.4999 19.6854C20.7695 19.6854 23.9544 20.6083 26.4686 22.2831C29.2987 24.1698 31.0993 26.8584 31.6763 30.059C31.8089 30.7925 31.6298 31.5177 31.1854 32.0489C30.9836 32.2908 30.7304 32.4847 30.4443 32.6164C30.1581 32.7482 29.8462 32.8144 29.5311 32.8104Z" fill="#696969"/>
</svg>
