<svg width="35" height="35" viewBox="0 0 35 35" fill="none" xmlns="http://www.w3.org/2000/svg">
<g id="Icon">
<path id="Vector" d="M30.1399 9.31579C30.1812 9.29171 30.2154 9.25723 30.2392 9.21579C30.263 9.17435 30.2755 9.12739 30.2755 9.07961C30.2755 9.03182 30.263 8.98486 30.2392 8.94342C30.2154 8.90198 30.1812 8.86751 30.1399 8.84342L19.6987 2.77721C19.0306 2.38997 18.2721 2.18604 17.4999 2.18604C16.7277 2.18604 15.9692 2.38997 15.3011 2.77721L4.86197 8.84342C4.82069 8.86751 4.78644 8.90198 4.76264 8.94342C4.73884 8.98486 4.72632 9.03182 4.72632 9.07961C4.72632 9.12739 4.73884 9.17435 4.76264 9.21579C4.78644 9.25723 4.82069 9.29171 4.86197 9.31579L17.3635 16.6699C17.4056 16.6947 17.4535 16.7077 17.5023 16.7077C17.5511 16.7077 17.599 16.6947 17.6411 16.6699L30.1399 9.31579Z" fill="#696969"/>
<path id="Vector_2" d="M3.69166 11.1749C3.64996 11.1508 3.60264 11.1382 3.55449 11.1382C3.50634 11.1383 3.45907 11.1511 3.41745 11.1753C3.37583 11.1995 3.34134 11.2343 3.31747 11.2761C3.29359 11.3179 3.28119 11.3653 3.2815 11.4134V23.3004C3.28253 23.8733 3.43351 24.4359 3.71942 24.9322C4.00533 25.4286 4.4162 25.8415 4.91119 26.1298L15.9963 32.7764C16.0379 32.8004 16.085 32.813 16.133 32.8131C16.181 32.8131 16.2281 32.8005 16.2697 32.7765C16.3112 32.7525 16.3457 32.718 16.3698 32.6765C16.3938 32.635 16.4064 32.5879 16.4065 32.5399V18.7484C16.4064 18.7004 16.3938 18.6534 16.3698 18.6118C16.3458 18.5703 16.3113 18.5359 16.2698 18.5119L3.69166 11.1749Z" fill="#696969"/>
<path id="Vector_3" d="M18.5938 18.7964V32.5367C18.5938 32.5846 18.6065 32.6318 18.6305 32.6733C18.6545 32.7148 18.689 32.7493 18.7306 32.7733C18.7721 32.7972 18.8193 32.8098 18.8673 32.8098C18.9152 32.8098 18.9624 32.7972 19.0039 32.7732L30.0884 26.1266C30.583 25.8387 30.9937 25.4263 31.2797 24.9306C31.5657 24.4349 31.717 23.8729 31.7187 23.3006V11.4136C31.7186 11.3657 31.7058 11.3187 31.6818 11.2772C31.6577 11.2358 31.6232 11.2014 31.5816 11.1775C31.5401 11.1537 31.493 11.1411 31.4451 11.1411C31.3972 11.1412 31.3501 11.1538 31.3086 11.1778L18.7305 18.5606C18.689 18.5845 18.6546 18.6189 18.6306 18.6603C18.6066 18.7016 18.5939 18.7486 18.5938 18.7964Z" fill="#696969"/>
</g>
</svg>
