<svg width="16" height="16" viewBox="0 0 16 16" fill="none" xmlns="http://www.w3.org/2000/svg">
<path d="M13.2616 4.39893C13.2797 4.38834 13.2948 4.37317 13.3053 4.35493C13.3157 4.3367 13.3212 4.31604 13.3212 4.29501C13.3212 4.27399 13.3157 4.25333 13.3053 4.23509C13.2948 4.21686 13.2797 4.20169 13.2616 4.19109L8.66743 1.52196C8.37347 1.35157 8.03973 1.26184 7.69997 1.26184C7.3602 1.26184 7.02646 1.35157 6.7325 1.52196L2.13927 4.19109C2.12111 4.20169 2.10604 4.21686 2.09557 4.23509C2.0851 4.25333 2.07959 4.27399 2.07959 4.29501C2.07959 4.31604 2.0851 4.3367 2.09557 4.35493C2.10604 4.37317 2.12111 4.38834 2.13927 4.39893L7.63996 7.63474C7.65846 7.64563 7.67955 7.65138 7.70102 7.65138C7.72249 7.65138 7.74358 7.64563 7.76208 7.63474L13.2616 4.39893Z" fill="white"/>
<path d="M1.62432 5.21696C1.60597 5.20636 1.58515 5.2008 1.56397 5.20084C1.54278 5.20087 1.52198 5.2065 1.50367 5.21715C1.48535 5.2278 1.47018 5.2431 1.45968 5.2615C1.44917 5.2799 1.44371 5.30074 1.44385 5.32193V10.5522C1.4443 10.8043 1.51073 11.0518 1.63653 11.2702C1.76233 11.4886 1.94312 11.6703 2.16091 11.7971L7.03838 14.7216C7.05666 14.7322 7.0774 14.7378 7.09851 14.7378C7.11962 14.7378 7.14035 14.7322 7.15864 14.7217C7.17693 14.7111 7.19212 14.696 7.20268 14.6777C7.21325 14.6594 7.21883 14.6387 7.21885 14.6176V8.54931C7.21883 8.52821 7.21326 8.50749 7.2027 8.48922C7.19214 8.47096 7.17697 8.45579 7.15869 8.44524L1.62432 5.21696Z" fill="white"/>
<path d="M8.18115 8.57038V14.6161C8.18117 14.6372 8.18675 14.6579 8.19732 14.6762C8.20789 14.6945 8.22308 14.7096 8.24136 14.7202C8.25965 14.7307 8.28039 14.7363 8.3015 14.7363C8.3226 14.7363 8.34334 14.7307 8.36162 14.7202L13.2388 11.7957C13.4564 11.669 13.6371 11.4875 13.763 11.2694C13.8888 11.0513 13.9554 10.8041 13.9562 10.5522V5.32195C13.9561 5.30086 13.9505 5.28017 13.9399 5.26194C13.9293 5.24371 13.9141 5.22858 13.8958 5.21807C13.8775 5.20756 13.8568 5.20204 13.8357 5.20206C13.8146 5.20208 13.7939 5.20763 13.7757 5.21818L8.24131 8.46661C8.22308 8.47714 8.20793 8.49226 8.19738 8.51047C8.18682 8.52868 8.18123 8.54934 8.18115 8.57038Z" fill="white"/>
</svg>
