<svg width="16" height="16" viewBox="0 0 16 16" fill="none" xmlns="http://www.w3.org/2000/svg">
<g id="Icon">
<path id="Vector" d="M13.2616 4.39893C13.2797 4.38834 13.2948 4.37317 13.3053 4.35493C13.3157 4.3367 13.3212 4.31604 13.3212 4.29501C13.3212 4.27399 13.3157 4.25333 13.3053 4.23509C13.2948 4.21686 13.2797 4.20169 13.2616 4.19109L8.66743 1.52196C8.37347 1.35157 8.03973 1.26184 7.69997 1.26184C7.3602 1.26184 7.02646 1.35157 6.7325 1.52196L2.13927 4.19109C2.12111 4.20169 2.10604 4.21686 2.09557 4.23509C2.0851 4.25333 2.07959 4.27399 2.07959 4.29501C2.07959 4.31604 2.0851 4.3367 2.09557 4.35493C2.10604 4.37317 2.12111 4.38834 2.13927 4.39893L7.63996 7.63474C7.65846 7.64563 7.67955 7.65138 7.70102 7.65138C7.72249 7.65138 7.74358 7.64563 7.76208 7.63474L13.2616 4.39893Z" fill="#2D3748"/>
<path id="Vector_2" d="M1.62432 5.21693C1.60597 5.20633 1.58515 5.20077 1.56397 5.20081C1.54278 5.20084 1.52198 5.20647 1.50367 5.21712C1.48535 5.22777 1.47018 5.24307 1.45968 5.26147C1.44917 5.27987 1.44371 5.30071 1.44385 5.3219V10.5522C1.4443 10.8042 1.51073 11.0518 1.63653 11.2702C1.76233 11.4886 1.94312 11.6703 2.16091 11.7971L7.03838 14.7216C7.05666 14.7322 7.0774 14.7377 7.09851 14.7377C7.11962 14.7377 7.14035 14.7322 7.15864 14.7216C7.17693 14.7111 7.19212 14.6959 7.20268 14.6777C7.21325 14.6594 7.21883 14.6386 7.21885 14.6175V8.54928C7.21883 8.52818 7.21326 8.50746 7.2027 8.48919C7.19214 8.47093 7.17697 8.45576 7.15869 8.44521L1.62432 5.21693Z" fill="#2D3748"/>
<path id="Vector_3" d="M8.18115 8.57041V14.6161C8.18117 14.6372 8.18675 14.658 8.19732 14.6762C8.20789 14.6945 8.22308 14.7097 8.24136 14.7202C8.25965 14.7308 8.28039 14.7363 8.3015 14.7363C8.3226 14.7363 8.34334 14.7307 8.36162 14.7202L13.2388 11.7957C13.4564 11.669 13.6371 11.4876 13.763 11.2695C13.8888 11.0513 13.9554 10.8041 13.9562 10.5523V5.32198C13.9561 5.30089 13.9505 5.2802 13.9399 5.26197C13.9293 5.24374 13.9141 5.22861 13.8958 5.2181C13.8775 5.20759 13.8568 5.20207 13.8357 5.20209C13.8146 5.20211 13.7939 5.20767 13.7757 5.21821L8.24131 8.46664C8.22308 8.47717 8.20793 8.49229 8.19738 8.5105C8.18682 8.52871 8.18123 8.54937 8.18115 8.57041Z" fill="#2D3748"/>
</g>
</svg>
