<svg width="16" height="16" viewBox="0 0 16 16" fill="none" xmlns="http://www.w3.org/2000/svg">
<g id="Icon">
<path id="Vector" d="M10.405 2.24221C9.8197 1.61027 9.00218 1.26226 8.09983 1.26226C7.19268 1.26226 6.37245 1.60816 5.78983 2.23619C5.2009 2.87114 4.91396 3.73408 4.98133 4.6659C5.11488 6.50428 6.51381 7.99976 8.09983 7.99976C9.68585 7.99976 11.0824 6.50458 11.218 4.66651C11.2863 3.74311 10.9976 2.88197 10.405 2.24221Z" fill="#6AB716"/>
<path id="Vector_2" d="M13.3934 14.7366H2.80593C2.66735 14.7384 2.53011 14.7093 2.4042 14.6514C2.27829 14.5935 2.16686 14.5082 2.07804 14.4018C1.88254 14.1681 1.80373 13.849 1.86208 13.5262C2.11594 12.118 2.9082 10.935 4.15343 10.1046C5.25971 9.36734 6.66105 8.96159 8.09968 8.96159C9.53832 8.96159 10.9397 9.36764 12.0459 10.1046C13.2912 10.9347 14.0834 12.1177 14.3373 13.5259C14.3956 13.8487 14.3168 14.1678 14.1213 14.4015C14.0325 14.508 13.9211 14.5933 13.7952 14.6512C13.6693 14.7092 13.532 14.7383 13.3934 14.7366Z" fill="#6AB716"/>
</g>
</svg>
