<svg width="18" height="18" viewBox="0 0 18 18" fill="none" xmlns="http://www.w3.org/2000/svg">
<path fill-rule="evenodd" clip-rule="evenodd" d="M6.96975 0.967519C7.11061 0.827407 7.30132 0.748913 7.5 0.749269H13.5C14.0967 0.749269 14.669 0.986322 15.091 1.40828C15.5129 1.83024 15.75 2.40253 15.75 2.99927V6.74927C15.75 6.94818 15.671 7.13895 15.5303 7.2796C15.3897 7.42025 15.1989 7.49927 15 7.49927C14.8011 7.49927 14.6103 7.42025 14.4697 7.2796C14.329 7.13895 14.25 6.94818 14.25 6.74927V2.99927C14.25 2.80036 14.171 2.60959 14.0303 2.46894C13.8897 2.32829 13.6989 2.24927 13.5 2.24927H8.25V5.99927C8.25 6.19818 8.17098 6.38895 8.03033 6.5296C7.88968 6.67025 7.69891 6.74927 7.5 6.74927H3.75V14.9985C3.75 15.1974 3.82902 15.3882 3.96967 15.5288C4.11032 15.6695 4.30109 15.7485 4.5 15.7485H5.25C5.44891 15.7485 5.63968 15.8275 5.78033 15.9682C5.92098 16.1088 6 16.2996 6 16.4985C6 16.6974 5.92098 16.8882 5.78033 17.0288C5.63968 17.1695 5.44891 17.2485 5.25 17.2485H4.5C3.90326 17.2485 3.33097 17.0115 2.90901 16.5895C2.48705 16.1676 2.25 15.5953 2.25 14.9985V5.99852C2.25004 5.79962 2.32909 5.60889 2.46975 5.46827L6.96975 0.967519ZM4.8105 5.24852H6.75V3.30827L4.8105 5.24852ZM14.25 8.99852C14.4489 8.99852 14.6397 9.07754 14.7803 9.21819C14.921 9.35884 15 9.54961 15 9.74852V14.2485H17.25C17.4489 14.2485 17.6397 14.3275 17.7803 14.4682C17.921 14.6088 18 14.7996 18 14.9985C18 15.1974 17.921 15.3882 17.7803 15.5288C17.6397 15.6695 17.4489 15.7485 17.25 15.7485H14.25C14.0511 15.7485 13.8603 15.6695 13.7197 15.5288C13.579 15.3882 13.5 15.1974 13.5 14.9985V9.74852C13.5 9.54961 13.579 9.35884 13.7197 9.21819C13.8603 9.07754 14.0511 8.99852 14.25 8.99852ZM8.8605 9.31277C8.74493 9.15085 8.56978 9.04148 8.37357 9.00871C8.17736 8.97594 7.97616 9.02245 7.81425 9.13802C7.65234 9.25359 7.54296 9.42874 7.51019 9.62495C7.47742 9.82116 7.52393 10.0224 7.6395 10.1843L9.20325 12.3735L7.6395 14.5628C7.52393 14.7247 7.47742 14.9259 7.51019 15.1221C7.54296 15.3183 7.65234 15.4935 7.81425 15.609C7.97616 15.7246 8.17736 15.7711 8.37357 15.7383C8.56978 15.7056 8.74493 15.5962 8.8605 15.4343L10.125 13.6643L11.3895 15.4343C11.4467 15.5144 11.5192 15.5826 11.6027 15.6347C11.6863 15.6869 11.7793 15.7221 11.8764 15.7383C11.9736 15.7546 12.073 15.7515 12.169 15.7293C12.2649 15.7071 12.3556 15.6662 12.4357 15.609C12.5159 15.5518 12.584 15.4793 12.6362 15.3958C12.6884 15.3122 12.7236 15.2192 12.7398 15.1221C12.756 15.0249 12.753 14.9255 12.7308 14.8296C12.7086 14.7336 12.6677 14.6429 12.6105 14.5628L11.0468 12.3728L12.6105 10.1843C12.6677 10.1041 12.7086 10.0134 12.7308 9.91747C12.753 9.8215 12.756 9.72211 12.7398 9.62495C12.7236 9.5278 12.6884 9.43479 12.6362 9.35124C12.584 9.2677 12.5159 9.19524 12.4357 9.13802C12.3556 9.0808 12.2649 9.03992 12.169 9.01774C12.073 8.99555 11.9736 8.99248 11.8764 9.00871C11.7793 9.02494 11.6863 9.06014 11.6027 9.11231C11.5192 9.16448 11.4467 9.2326 11.3895 9.31277L10.125 11.0828L8.8605 9.31277Z" fill="white"/>
</svg>
