<svg width="16" height="16" viewBox="0 0 16 16" fill="none" xmlns="http://www.w3.org/2000/svg">
<path d="M10.405 2.2422C9.8197 1.61026 9.00218 1.26225 8.09983 1.26225C7.19268 1.26225 6.37245 1.60815 5.78983 2.23618C5.2009 2.87113 4.91396 3.73407 4.98133 4.66589C5.11488 6.50427 6.51381 7.99975 8.09983 7.99975C9.68585 7.99975 11.0824 6.50457 11.218 4.66649C11.2863 3.7431 10.9976 2.88196 10.405 2.2422Z" fill="#2D3748"/>
<path d="M13.3937 14.7366H2.80618C2.6676 14.7384 2.53036 14.7093 2.40444 14.6513C2.27853 14.5934 2.16711 14.5082 2.07829 14.4018C1.88278 14.1681 1.80397 13.849 1.86233 13.5262C2.11619 12.118 2.90844 10.935 4.15368 10.1045C5.25995 9.36732 6.66129 8.96156 8.09993 8.96156C9.53856 8.96156 10.9399 9.36762 12.0462 10.1045C13.2914 10.9347 14.0837 12.1177 14.3375 13.5259C14.3959 13.8487 14.3171 14.1678 14.1216 14.4015C14.0328 14.5079 13.9214 14.5932 13.7954 14.6512C13.6695 14.7092 13.5323 14.7383 13.3937 14.7366Z" fill="#2D3748"/>
</svg>
