<svg width="19" height="19" viewBox="0 0 19 19" fill="none" xmlns="http://www.w3.org/2000/svg">
<g id="1367626441558095263 1">
<path id="path7143" d="M15.9027 1.26666C13.1868 1.26666 9.54263 3.12993 7.09543 6.33333H5.06673C3.60082 6.33333 2.76064 7.42748 2.18215 8.58458L1.40771 10.1333H3.23602H5.06673L6.96673 12.0333L8.86673 13.9333V15.764V17.5923L10.4155 16.818C11.5726 16.2394 12.6667 15.3992 12.6667 13.9333V11.9046C15.8701 9.45744 17.7334 5.81324 17.7334 3.09738V1.26666H15.9027ZM12.6667 5.06666C13.3663 5.06666 13.9334 5.63375 13.9334 6.33333C13.9334 7.03291 13.3663 7.6 12.6667 7.6C11.9672 7.6 11.4001 7.03291 11.4001 6.33333C11.4001 5.63375 11.9672 5.06666 12.6667 5.06666ZM4.4334 12.6667L3.80007 13.3C2.88528 14.2148 2.5334 16.4667 2.5334 16.4667C2.5334 16.4667 4.6842 16.2159 5.70007 15.2L6.3334 14.5667L4.4334 12.6667Z" fill="white"/>
</g>
</svg>
