<svg width="28" height="29" viewBox="0 0 28 29" fill="none" xmlns="http://www.w3.org/2000/svg">
<path fill-rule="evenodd" clip-rule="evenodd" d="M18.4169 14.5852C18.4169 16.9074 16.5815 18.7897 14.3174 18.7897C12.0533 18.7897 10.218 16.9074 10.218 14.5852C10.218 12.2631 12.0533 10.3807 14.3174 10.3807C16.5815 10.3807 18.4169 12.2631 18.4169 14.5852Z" stroke="#2D3748" stroke-width="2.7033" stroke-linecap="round" stroke-linejoin="round"/>
<path fill-rule="evenodd" clip-rule="evenodd" d="M13.07 27.2308C12.4259 27.2308 11.8764 26.7526 11.7715 26.1008C11.6749 25.5735 11.3047 25.1426 10.8068 24.978C10.4011 24.8351 10.0044 24.6666 9.61899 24.4734C9.1604 24.2328 8.61026 24.2689 8.18516 24.5671C7.67072 24.9465 6.96403 24.8877 6.51588 24.4283L4.77279 22.6406C4.30368 22.1594 4.24273 21.4008 4.6287 20.8474C4.92637 20.4013 4.96925 19.8263 4.74116 19.3389C4.59088 19.0005 4.45831 18.6539 4.34405 18.3009C4.18039 17.7445 3.72867 17.3279 3.17202 17.2196C2.50078 17.1096 2.00523 16.5183 2.00002 15.8211V13.5845C1.99645 12.7809 2.56238 12.0936 3.33545 11.9625C3.92192 11.8481 4.41163 11.4361 4.63573 10.8686C4.7025 10.7088 4.77279 10.5502 4.84659 10.3928C5.14464 9.80431 5.10347 9.09545 4.73939 8.54738C4.28411 7.89838 4.35401 7.00667 4.90457 6.44062L6.18553 5.12681C6.81731 4.4786 7.81371 4.39471 8.5401 4.92857L8.58051 4.95741C9.12292 5.33183 9.81312 5.39965 10.415 5.13763C11.0588 4.89993 11.5334 4.33248 11.6643 3.6436L11.6819 3.58233C11.8265 2.67036 12.5944 2.00038 13.4953 2H15.0416C15.9667 1.99957 16.7562 2.68586 16.9076 3.62198L16.9357 3.74813C17.0599 4.40804 17.5099 4.9542 18.1235 5.18989C18.715 5.45025 19.3952 5.38226 19.9265 5.00967L20.0142 4.94479C20.7594 4.39393 21.7842 4.47865 22.4339 5.14483L23.6129 6.35591C24.2038 6.96534 24.2781 7.9237 23.7886 8.62127C23.4051 9.20432 23.3562 9.95355 23.6603 10.5839L23.736 10.7641C23.9821 11.3795 24.515 11.8256 25.1521 11.9499C25.9849 12.0892 26.5973 12.8256 26.6 13.6909V15.6967C26.5998 16.4598 26.0617 17.1107 25.3278 17.2358C24.7243 17.3545 24.2326 17.8028 24.0468 18.4036C23.9648 18.6438 23.8735 18.8842 23.7727 19.1245C23.5383 19.6525 23.5903 20.2678 23.9099 20.7465C24.3314 21.348 24.266 22.1743 23.7552 22.6982L22.1194 24.3779C21.6515 24.8576 20.9137 24.9194 20.3763 24.5239C19.9275 24.2094 19.3463 24.1748 18.8652 24.4338C18.5222 24.608 18.1702 24.7627 17.8109 24.8969C17.3082 25.0748 16.9377 25.516 16.8409 26.0521C16.7384 26.7267 16.1745 27.2257 15.5089 27.2308H13.07Z" stroke="#2D3748" stroke-width="2.7033" stroke-linecap="round" stroke-linejoin="round"/>
</svg>
