<svg width="18" height="18" viewBox="0 0 18 18" fill="none" xmlns="http://www.w3.org/2000/svg">
<g id="svgexport-18 (3) 2" clip-path="url(#clip0_739_7489)">
<g id="Group">
<path id="Vector" d="M7.91977 9.12347C10.4544 9.12332 11.3664 6.5855 11.6051 4.50085C11.8992 1.93279 10.6848 0 7.91977 0C5.15512 0 3.94009 1.93265 4.23441 4.50085C4.47338 6.5855 5.38509 9.12365 7.91977 9.12347Z" fill="#696969"/>
<path id="Vector_2" d="M13.4621 10.18C13.5436 10.18 13.6247 10.1824 13.7051 10.1869C13.5845 10.0148 13.4449 9.86305 13.2815 9.74105C12.7945 9.37755 12.1637 9.25829 11.6061 9.03917C11.3347 8.93255 11.0916 8.82664 10.8634 8.70605C10.0933 9.55061 9.08905 9.99241 7.91958 9.99253C6.75049 9.99253 5.74631 9.55073 4.97628 8.70605C4.74811 8.82667 4.50499 8.93255 4.2336 9.03917C3.67599 9.25832 3.04525 9.37755 2.55819 9.74105C1.7159 10.3697 1.49822 11.784 1.32719 12.7487C1.18605 13.5451 1.09122 14.3577 1.06355 15.1666C1.04211 15.7932 1.35146 15.881 1.87563 16.0702C2.53196 16.3069 3.20963 16.4826 3.89187 16.6267C5.20943 16.9049 6.56755 17.1187 7.91981 17.1283C8.57505 17.1236 9.23161 17.0707 9.88428 16.9861C9.40102 16.2859 9.11758 15.4377 9.11758 14.5245C9.1176 12.1289 11.0665 10.18 13.4621 10.18Z" fill="#696969"/>
<path id="Vector_3" d="M13.4619 11.0488C11.5425 11.0488 9.98633 12.605 9.98633 14.5244C9.98633 16.4439 11.5424 18.0001 13.4619 18.0001C15.3814 18.0001 16.9376 16.4439 16.9376 14.5244C16.9376 12.6049 15.3814 11.0488 13.4619 11.0488ZM14.9825 15.1207H14.0583V16.045C14.0583 16.3743 13.7913 16.6413 13.462 16.6413C13.1326 16.6413 12.8656 16.3743 12.8656 16.045V15.1207H11.9414C11.612 15.1207 11.345 14.8538 11.345 14.5244C11.345 14.195 11.612 13.928 11.9414 13.928H12.8656V13.0038C12.8656 12.6744 13.1326 12.4074 13.462 12.4074C13.7913 12.4074 14.0583 12.6744 14.0583 13.0038V13.928H14.9825C15.3119 13.928 15.5789 14.195 15.5789 14.5244C15.5789 14.8538 15.3119 15.1207 14.9825 15.1207Z" fill="#696969"/>
</g>
<path id="Subtract" fill-rule="evenodd" clip-rule="evenodd" d="M15.9498 15H11.0498C11.2814 16.1411 12.2903 17 13.4998 17C14.7093 17 15.7182 16.1411 15.9498 15ZM15.9498 14C15.7182 12.8589 14.7093 12 13.4998 12C12.2903 12 11.2814 12.8589 11.0498 14H15.9498Z" fill="#696969"/>
</g>
<defs>
<clipPath id="clip0_739_7489">
<rect width="18" height="18" fill="white"/>
</clipPath>
</defs>
</svg>
