<svg width="19" height="18" viewBox="0 0 19 18" fill="none" xmlns="http://www.w3.org/2000/svg">
<g id="svgexport-17 (25) 1">
<g id="Group">
<g id="Layer 51">
<path id="Vector" d="M13.0928 1.125H5.21777C4.77022 1.125 4.341 1.30279 4.02453 1.61926C3.70806 1.93572 3.53027 2.36495 3.53027 2.8125V12.9375C3.53027 13.3851 3.70806 13.8143 4.02453 14.1307C4.341 14.4472 4.77022 14.625 5.21777 14.625H13.0928C13.5403 14.625 13.9695 14.4472 14.286 14.1307C14.6025 13.8143 14.7803 13.3851 14.7803 12.9375V2.8125C14.7803 2.36495 14.6025 1.93572 14.286 1.61926C13.9695 1.30279 13.5403 1.125 13.0928 1.125ZM13.6553 12.9375C13.6553 13.0867 13.596 13.2298 13.4905 13.3352C13.385 13.4407 13.242 13.5 13.0928 13.5H5.21777C5.06859 13.5 4.92552 13.4407 4.82003 13.3352C4.71454 13.2298 4.65527 13.0867 4.65527 12.9375V2.8125C4.65527 2.66332 4.71454 2.52024 4.82003 2.41475C4.92552 2.30926 5.06859 2.25 5.21777 2.25H13.0928C13.242 2.25 13.385 2.30926 13.4905 2.41475C13.596 2.52024 13.6553 2.66332 13.6553 2.8125V12.9375Z" fill="white"/>
<path id="Vector_2" d="M11.9678 15.75H2.96777C2.81859 15.75 2.67552 15.6907 2.57003 15.5852C2.46454 15.4798 2.40527 15.3367 2.40527 15.1875V3.9375C2.40527 3.78832 2.34601 3.64524 2.24052 3.53975C2.13503 3.43426 1.99196 3.375 1.84277 3.375C1.69359 3.375 1.55052 3.43426 1.44503 3.53975C1.33954 3.64524 1.28027 3.78832 1.28027 3.9375V15.1875C1.28027 15.6351 1.45806 16.0643 1.77453 16.3807C2.091 16.6972 2.52022 16.875 2.96777 16.875H11.9678C12.117 16.875 12.26 16.8157 12.3655 16.7102C12.471 16.6048 12.5303 16.4617 12.5303 16.3125C12.5303 16.1633 12.471 16.0202 12.3655 15.9148C12.26 15.8093 12.117 15.75 11.9678 15.75ZM11.4053 7.3125H9.71777V5.625C9.71777 5.47582 9.65851 5.33274 9.55302 5.22725C9.44753 5.12176 9.30446 5.0625 9.15527 5.0625C9.00609 5.0625 8.86302 5.12176 8.75753 5.22725C8.65204 5.33274 8.59277 5.47582 8.59277 5.625V7.3125H6.90527C6.75609 7.3125 6.61302 7.37176 6.50753 7.47725C6.40204 7.58274 6.34277 7.72582 6.34277 7.875C6.34277 8.02418 6.40204 8.16726 6.50753 8.27275C6.61302 8.37824 6.75609 8.4375 6.90527 8.4375H8.59277V10.125C8.59277 10.2742 8.65204 10.4173 8.75753 10.5227C8.86302 10.6282 9.00609 10.6875 9.15527 10.6875C9.30446 10.6875 9.44753 10.6282 9.55302 10.5227C9.65851 10.4173 9.71777 10.2742 9.71777 10.125V8.4375H11.4053C11.5545 8.4375 11.6975 8.37824 11.803 8.27275C11.9085 8.16726 11.9678 8.02418 11.9678 7.875C11.9678 7.72582 11.9085 7.58274 11.803 7.47725C11.6975 7.37176 11.5545 7.3125 11.4053 7.3125Z" fill="white"/>
</g>
</g>
</g>
</svg>
