<svg width="193" height="27" viewBox="0 0 193 27" fill="none" xmlns="http://www.w3.org/2000/svg">
<path d="M17.5664 15C13.9823 15 11.0664 17.9159 11.0664 21.5V25.5H24.0664V21.5C24.0664 17.9159 21.1505 15 17.5664 15ZM22.0664 10.5C22.0664 8.01847 20.0479 6 17.5664 6C15.0849 6 13.0664 8.01847 13.0664 10.5C13.0664 12.9815 15.0849 15 17.5664 15C20.0479 15 22.0664 12.9815 22.0664 10.5ZM11.5664 6C11.5664 3.51847 9.54794 1.5 7.06641 1.5C4.58487 1.5 2.56641 3.51847 2.56641 6C2.56641 8.48153 4.58487 10.5 7.06641 10.5C9.54794 10.5 11.5664 8.48153 11.5664 6ZM28.0664 10.5C25.4247 10.5 23.1557 12.0901 22.1401 14.3583C24.4945 15.8713 26.0664 18.4997 26.0664 21.5H34.6331V17C34.6331 13.4159 31.6505 10.5 28.0664 10.5ZM32.5664 6C32.5664 3.51847 30.5479 1.5 28.0664 1.5C25.5849 1.5 23.5664 3.51847 23.5664 6C23.5664 8.48153 25.5849 10.5 28.0664 10.5C30.5479 10.5 32.5664 8.48153 32.5664 6Z" fill="#6AB716"/>
<path d="M12.993 14.3583C11.9773 12.0901 9.70833 10.5 7.06667 10.5C3.48253 10.5 0.5 13.4159 0.5 17V21.5H9.06667C9.06667 18.4997 10.6385 15.8713 12.993 14.3583Z" fill="#6AB716"/>
<path d="M42.1338 8C39.0963 8 36.6338 10.4625 36.6338 13.5C36.6338 16.5374 39.0963 18.9999 42.1338 18.9999C45.1713 18.9999 47.6338 16.5374 47.6338 13.5C47.6337 10.4625 45.1712 8 42.1338 8ZM44.54 14.4436H43.0774V15.9061C43.0774 16.4273 42.6549 16.8498 42.1338 16.8498C41.6126 16.8498 41.1901 16.4273 41.1901 15.9061V14.4436H39.7276C39.2064 14.4436 38.7839 14.0211 38.7839 13.4999C38.7839 12.9787 39.2063 12.5562 39.7276 12.5562H41.1901V11.0936C41.1901 10.5724 41.6126 10.1499 42.1338 10.1499C42.655 10.1499 43.0774 10.5724 43.0774 11.0936V12.5562H44.54C45.0612 12.5562 45.4837 12.9787 45.4837 13.4999C45.4837 14.0212 45.0612 14.4436 44.54 14.4436Z" fill="#6AB716"/>
<path d="M63.5798 17.606H58.5758L57.7478 20H55.1018L59.6198 7.418H62.5538L67.0718 20H64.4078L63.5798 17.606ZM62.8958 15.59L61.0778 10.334L59.2598 15.59H62.8958ZM68.1126 14.978C68.1126 13.97 68.3106 13.076 68.7066 12.296C69.1146 11.516 69.6666 10.916 70.3626 10.496C71.0586 10.076 71.8326 9.866 72.6846 9.866C73.3326 9.866 73.9506 10.01 74.5386 10.298C75.1266 10.574 75.5946 10.946 75.9426 11.414V6.68H78.4986V20H75.9426V18.524C75.6306 19.016 75.1926 19.412 74.6286 19.712C74.0646 20.012 73.4106 20.162 72.6666 20.162C71.8266 20.162 71.0586 19.946 70.3626 19.514C69.6666 19.082 69.1146 18.476 68.7066 17.696C68.3106 16.904 68.1126 15.998 68.1126 14.978ZM75.9606 15.014C75.9606 14.402 75.8406 13.88 75.6006 13.448C75.3606 13.004 75.0366 12.668 74.6286 12.44C74.2206 12.2 73.7826 12.08 73.3146 12.08C72.8466 12.08 72.4146 12.194 72.0186 12.422C71.6226 12.65 71.2986 12.986 71.0466 13.43C70.8066 13.862 70.6866 14.378 70.6866 14.978C70.6866 15.578 70.8066 16.106 71.0466 16.562C71.2986 17.006 71.6226 17.348 72.0186 17.588C72.4266 17.828 72.8586 17.948 73.3146 17.948C73.7826 17.948 74.2206 17.834 74.6286 17.606C75.0366 17.366 75.3606 17.03 75.6006 16.598C75.8406 16.154 75.9606 15.626 75.9606 15.014ZM80.3118 14.978C80.3118 13.97 80.5098 13.076 80.9058 12.296C81.3138 11.516 81.8658 10.916 82.5618 10.496C83.2578 10.076 84.0318 9.866 84.8838 9.866C85.5318 9.866 86.1498 10.01 86.7378 10.298C87.3258 10.574 87.7938 10.946 88.1418 11.414V6.68H90.6978V20H88.1418V18.524C87.8298 19.016 87.3918 19.412 86.8278 19.712C86.2638 20.012 85.6098 20.162 84.8658 20.162C84.0258 20.162 83.2578 19.946 82.5618 19.514C81.8658 19.082 81.3138 18.476 80.9058 17.696C80.5098 16.904 80.3118 15.998 80.3118 14.978ZM88.1598 15.014C88.1598 14.402 88.0398 13.88 87.7998 13.448C87.5598 13.004 87.2358 12.668 86.8278 12.44C86.4198 12.2 85.9818 12.08 85.5138 12.08C85.0458 12.08 84.6138 12.194 84.2178 12.422C83.8218 12.65 83.4978 12.986 83.2458 13.43C83.0058 13.862 82.8858 14.378 82.8858 14.978C82.8858 15.578 83.0058 16.106 83.2458 16.562C83.4978 17.006 83.8218 17.348 84.2178 17.588C84.6258 17.828 85.0578 17.948 85.5138 17.948C85.9818 17.948 86.4198 17.834 86.8278 17.606C87.2358 17.366 87.5598 17.03 87.7998 16.598C88.0398 16.154 88.1598 15.626 88.1598 15.014ZM108.194 20H105.674L99.9681 11.378V20H97.4481V7.418H99.9681L105.674 16.058V7.418H108.194V20ZM119.954 14.798C119.954 15.158 119.93 15.482 119.882 15.77H112.592C112.652 16.49 112.904 17.054 113.348 17.462C113.792 17.87 114.338 18.074 114.986 18.074C115.922 18.074 116.588 17.672 116.984 16.868H119.702C119.414 17.828 118.862 18.62 118.046 19.244C117.23 19.856 116.228 20.162 115.04 20.162C114.08 20.162 113.216 19.952 112.448 19.532C111.692 19.1 111.098 18.494 110.666 17.714C110.246 16.934 110.036 16.034 110.036 15.014C110.036 13.982 110.246 13.076 110.666 12.296C111.086 11.516 111.674 10.916 112.43 10.496C113.186 10.076 114.056 9.866 115.04 9.866C115.988 9.866 116.834 10.07 117.578 10.478C118.334 10.886 118.916 11.468 119.324 12.224C119.744 12.968 119.954 13.826 119.954 14.798ZM117.344 14.078C117.332 13.43 117.098 12.914 116.642 12.53C116.186 12.134 115.628 11.936 114.968 11.936C114.344 11.936 113.816 12.128 113.384 12.512C112.964 12.884 112.706 13.406 112.61 14.078H117.344ZM135.618 10.028L132.702 20H129.984L128.166 13.034L126.348 20H123.612L120.678 10.028H123.234L124.998 17.624L126.906 10.028H129.57L131.442 17.606L133.206 10.028H135.618ZM149.82 7.436V9.47H146.472V20H143.952V9.47H140.604V7.436H149.82ZM160.929 14.798C160.929 15.158 160.905 15.482 160.857 15.77H153.567C153.627 16.49 153.879 17.054 154.323 17.462C154.767 17.87 155.313 18.074 155.961 18.074C156.897 18.074 157.563 17.672 157.959 16.868H160.677C160.389 17.828 159.837 18.62 159.021 19.244C158.205 19.856 157.203 20.162 156.015 20.162C155.055 20.162 154.191 19.952 153.423 19.532C152.667 19.1 152.073 18.494 151.641 17.714C151.221 16.934 151.011 16.034 151.011 15.014C151.011 13.982 151.221 13.076 151.641 12.296C152.061 11.516 152.649 10.916 153.405 10.496C154.161 10.076 155.031 9.866 156.015 9.866C156.963 9.866 157.809 10.07 158.553 10.478C159.309 10.886 159.891 11.468 160.299 12.224C160.719 12.968 160.929 13.826 160.929 14.798ZM158.319 14.078C158.307 13.43 158.073 12.914 157.617 12.53C157.161 12.134 156.603 11.936 155.943 11.936C155.319 11.936 154.791 12.128 154.359 12.512C153.939 12.884 153.681 13.406 153.585 14.078H158.319ZM162.12 14.978C162.12 13.97 162.318 13.076 162.714 12.296C163.122 11.516 163.668 10.916 164.352 10.496C165.048 10.076 165.822 9.866 166.674 9.866C167.418 9.866 168.066 10.016 168.618 10.316C169.182 10.616 169.632 10.994 169.968 11.45V10.028H172.506V20H169.968V18.542C169.644 19.01 169.194 19.4 168.618 19.712C168.054 20.012 167.4 20.162 166.656 20.162C165.816 20.162 165.048 19.946 164.352 19.514C163.668 19.082 163.122 18.476 162.714 17.696C162.318 16.904 162.12 15.998 162.12 14.978ZM169.968 15.014C169.968 14.402 169.848 13.88 169.608 13.448C169.368 13.004 169.044 12.668 168.636 12.44C168.228 12.2 167.79 12.08 167.322 12.08C166.854 12.08 166.422 12.194 166.026 12.422C165.63 12.65 165.306 12.986 165.054 13.43C164.814 13.862 164.694 14.378 164.694 14.978C164.694 15.578 164.814 16.106 165.054 16.562C165.306 17.006 165.63 17.348 166.026 17.588C166.434 17.828 166.866 17.948 167.322 17.948C167.79 17.948 168.228 17.834 168.636 17.606C169.044 17.366 169.368 17.03 169.608 16.598C169.848 16.154 169.968 15.626 169.968 15.014ZM187.352 9.884C188.576 9.884 189.56 10.262 190.304 11.018C191.06 11.762 191.438 12.806 191.438 14.15V20H188.918V14.492C188.918 13.712 188.72 13.118 188.324 12.71C187.928 12.29 187.388 12.08 186.704 12.08C186.02 12.08 185.474 12.29 185.066 12.71C184.67 13.118 184.472 13.712 184.472 14.492V20H181.952V14.492C181.952 13.712 181.754 13.118 181.358 12.71C180.962 12.29 180.422 12.08 179.738 12.08C179.042 12.08 178.49 12.29 178.082 12.71C177.686 13.118 177.488 13.712 177.488 14.492V20H174.968V10.028H177.488V11.234C177.812 10.814 178.226 10.484 178.73 10.244C179.246 10.004 179.81 9.884 180.422 9.884C181.202 9.884 181.898 10.052 182.51 10.388C183.122 10.712 183.596 11.18 183.932 11.792C184.256 11.216 184.724 10.754 185.336 10.406C185.96 10.058 186.632 9.884 187.352 9.884Z" fill="#6AB716"/>
</svg>
