<svg width="159" height="36" viewBox="0 0 159 36" fill="none" xmlns="http://www.w3.org/2000/svg">
<rect x="0.155273" width="158" height="36" rx="11" fill="#6AB716"/>
<path d="M30.0928 10.125H22.2178C21.7702 10.125 21.341 10.3028 21.0245 10.6193C20.7081 10.9357 20.5303 11.3649 20.5303 11.8125V21.9375C20.5303 22.3851 20.7081 22.8143 21.0245 23.1307C21.341 23.4472 21.7702 23.625 22.2178 23.625H30.0928C30.5403 23.625 30.9695 23.4472 31.286 23.1307C31.6025 22.8143 31.7803 22.3851 31.7803 21.9375V11.8125C31.7803 11.3649 31.6025 10.9357 31.286 10.6193C30.9695 10.3028 30.5403 10.125 30.0928 10.125ZM30.6553 21.9375C30.6553 22.0867 30.596 22.2298 30.4905 22.3352C30.385 22.4407 30.242 22.5 30.0928 22.5H22.2178C22.0686 22.5 21.9255 22.4407 21.82 22.3352C21.7145 22.2298 21.6553 22.0867 21.6553 21.9375V11.8125C21.6553 11.6633 21.7145 11.5202 21.82 11.4148C21.9255 11.3093 22.0686 11.25 22.2178 11.25H30.0928C30.242 11.25 30.385 11.3093 30.4905 11.4148C30.596 11.5202 30.6553 11.6633 30.6553 11.8125V21.9375Z" fill="white"/>
<path d="M28.9678 24.75H19.9678C19.8186 24.75 19.6755 24.6907 19.57 24.5852C19.4645 24.4798 19.4053 24.3367 19.4053 24.1875V12.9375C19.4053 12.7883 19.346 12.6452 19.2405 12.5398C19.135 12.4343 18.992 12.375 18.8428 12.375C18.6936 12.375 18.5505 12.4343 18.445 12.5398C18.3395 12.6452 18.2803 12.7883 18.2803 12.9375V24.1875C18.2803 24.6351 18.4581 25.0643 18.7745 25.3807C19.091 25.6972 19.5202 25.875 19.9678 25.875H28.9678C29.117 25.875 29.26 25.8157 29.3655 25.7102C29.471 25.6048 29.5303 25.4617 29.5303 25.3125C29.5303 25.1633 29.471 25.0202 29.3655 24.9148C29.26 24.8093 29.117 24.75 28.9678 24.75ZM28.4053 16.3125H26.7178V14.625C26.7178 14.4758 26.6585 14.3327 26.553 14.2273C26.4475 14.1218 26.3045 14.0625 26.1553 14.0625C26.0061 14.0625 25.863 14.1218 25.7575 14.2273C25.652 14.3327 25.5928 14.4758 25.5928 14.625V16.3125H23.9053C23.7561 16.3125 23.613 16.3718 23.5075 16.4773C23.402 16.5827 23.3428 16.7258 23.3428 16.875C23.3428 17.0242 23.402 17.1673 23.5075 17.2727C23.613 17.3782 23.7561 17.4375 23.9053 17.4375H25.5928V19.125C25.5928 19.2742 25.652 19.4173 25.7575 19.5227C25.863 19.6282 26.0061 19.6875 26.1553 19.6875C26.3045 19.6875 26.4475 19.6282 26.553 19.5227C26.6585 19.4173 26.7178 19.2742 26.7178 19.125V17.4375H28.4053C28.5545 17.4375 28.6975 17.3782 28.803 17.2727C28.9085 17.1673 28.9678 17.0242 28.9678 16.875C28.9678 16.7258 28.9085 16.5827 28.803 16.4773C28.6975 16.3718 28.5545 16.3125 28.4053 16.3125Z" fill="white"/>
<path d="M45.0833 20.296H41.5913L40.9913 22H39.5633L42.5513 13.648H44.1353L47.1233 22H45.6833L45.0833 20.296ZM44.6993 19.18L43.3433 15.304L41.9753 19.18H44.6993ZM47.9665 18.664C47.9665 18 48.1025 17.412 48.3745 16.9C48.6545 16.388 49.0305 15.992 49.5025 15.712C49.9825 15.424 50.5145 15.28 51.0985 15.28C51.5305 15.28 51.9545 15.376 52.3705 15.568C52.7945 15.752 53.1305 16 53.3785 16.312V13.12H54.7585V22H53.3785V21.004C53.1545 21.324 52.8425 21.588 52.4425 21.796C52.0505 22.004 51.5985 22.108 51.0865 22.108C50.5105 22.108 49.9825 21.964 49.5025 21.676C49.0305 21.38 48.6545 20.972 48.3745 20.452C48.1025 19.924 47.9665 19.328 47.9665 18.664ZM53.3785 18.688C53.3785 18.232 53.2825 17.836 53.0905 17.5C52.9065 17.164 52.6625 16.908 52.3585 16.732C52.0545 16.556 51.7265 16.468 51.3745 16.468C51.0225 16.468 50.6945 16.556 50.3905 16.732C50.0865 16.9 49.8385 17.152 49.6465 17.488C49.4625 17.816 49.3705 18.208 49.3705 18.664C49.3705 19.12 49.4625 19.52 49.6465 19.864C49.8385 20.208 50.0865 20.472 50.3905 20.656C50.7025 20.832 51.0305 20.92 51.3745 20.92C51.7265 20.92 52.0545 20.832 52.3585 20.656C52.6625 20.48 52.9065 20.224 53.0905 19.888C53.2825 19.544 53.3785 19.144 53.3785 18.688ZM56.0993 18.664C56.0993 18 56.2353 17.412 56.5073 16.9C56.7873 16.388 57.1633 15.992 57.6353 15.712C58.1153 15.424 58.6473 15.28 59.2313 15.28C59.6633 15.28 60.0873 15.376 60.5033 15.568C60.9273 15.752 61.2633 16 61.5113 16.312V13.12H62.8913V22H61.5113V21.004C61.2873 21.324 60.9753 21.588 60.5753 21.796C60.1833 22.004 59.7313 22.108 59.2193 22.108C58.6433 22.108 58.1153 21.964 57.6353 21.676C57.1633 21.38 56.7873 20.972 56.5073 20.452C56.2353 19.924 56.0993 19.328 56.0993 18.664ZM61.5113 18.688C61.5113 18.232 61.4153 17.836 61.2233 17.5C61.0393 17.164 60.7953 16.908 60.4913 16.732C60.1873 16.556 59.8593 16.468 59.5073 16.468C59.1553 16.468 58.8273 16.556 58.5233 16.732C58.2193 16.9 57.9713 17.152 57.7793 17.488C57.5953 17.816 57.5033 18.208 57.5033 18.664C57.5033 19.12 57.5953 19.52 57.7793 19.864C57.9713 20.208 58.2193 20.472 58.5233 20.656C58.8353 20.832 59.1633 20.92 59.5073 20.92C59.8593 20.92 60.1873 20.832 60.4913 20.656C60.7953 20.48 61.0393 20.224 61.2233 19.888C61.4153 19.544 61.5113 19.144 61.5113 18.688ZM74.6573 22H73.2893L69.1733 15.772V22H67.8053V13.648H69.1733L73.2893 19.864V13.648H74.6573V22ZM82.5137 18.532C82.5137 18.78 82.4977 19.004 82.4657 19.204H77.4137C77.4537 19.732 77.6497 20.156 78.0017 20.476C78.3537 20.796 78.7857 20.956 79.2977 20.956C80.0337 20.956 80.5537 20.648 80.8577 20.032H82.3337C82.1337 20.64 81.7697 21.14 81.2417 21.532C80.7217 21.916 80.0737 22.108 79.2977 22.108C78.6657 22.108 78.0977 21.968 77.5937 21.688C77.0977 21.4 76.7057 21 76.4177 20.488C76.1377 19.968 75.9977 19.368 75.9977 18.688C75.9977 18.008 76.1337 17.412 76.4057 16.9C76.6857 16.38 77.0737 15.98 77.5697 15.7C78.0737 15.42 78.6497 15.28 79.2977 15.28C79.9217 15.28 80.4777 15.416 80.9657 15.688C81.4537 15.96 81.8337 16.344 82.1057 16.84C82.3777 17.328 82.5137 17.892 82.5137 18.532ZM81.0857 18.1C81.0777 17.596 80.8977 17.192 80.5457 16.888C80.1937 16.584 79.7577 16.432 79.2377 16.432C78.7657 16.432 78.3617 16.584 78.0257 16.888C77.6897 17.184 77.4897 17.588 77.4257 18.1H81.0857ZM92.74 15.388L90.688 22H89.248L87.916 17.116L86.584 22H85.144L83.08 15.388H84.472L85.852 20.704L87.256 15.388H88.684L90.028 20.68L91.396 15.388H92.74ZM104.067 13.66L100.935 22H99.3515L96.2075 13.66H97.6715L100.143 20.596L102.627 13.66H104.067ZM104.756 18.664C104.756 18 104.892 17.412 105.164 16.9C105.444 16.388 105.82 15.992 106.292 15.712C106.772 15.424 107.3 15.28 107.876 15.28C108.396 15.28 108.848 15.384 109.232 15.592C109.624 15.792 109.936 16.044 110.168 16.348V15.388H111.548V22H110.168V21.016C109.936 21.328 109.62 21.588 109.22 21.796C108.82 22.004 108.364 22.108 107.852 22.108C107.284 22.108 106.764 21.964 106.292 21.676C105.82 21.38 105.444 20.972 105.164 20.452C104.892 19.924 104.756 19.328 104.756 18.664ZM110.168 18.688C110.168 18.232 110.072 17.836 109.88 17.5C109.696 17.164 109.452 16.908 109.148 16.732C108.844 16.556 108.516 16.468 108.164 16.468C107.812 16.468 107.484 16.556 107.18 16.732C106.876 16.9 106.628 17.152 106.436 17.488C106.252 17.816 106.16 18.208 106.16 18.664C106.16 19.12 106.252 19.52 106.436 19.864C106.628 20.208 106.876 20.472 107.18 20.656C107.492 20.832 107.82 20.92 108.164 20.92C108.516 20.92 108.844 20.832 109.148 20.656C109.452 20.48 109.696 20.224 109.88 19.888C110.072 19.544 110.168 19.144 110.168 18.688ZM116.68 15.28C117.2 15.28 117.664 15.388 118.072 15.604C118.488 15.82 118.812 16.14 119.044 16.564C119.276 16.988 119.392 17.5 119.392 18.1V22H118.036V18.304C118.036 17.712 117.888 17.26 117.592 16.948C117.296 16.628 116.892 16.468 116.38 16.468C115.868 16.468 115.46 16.628 115.156 16.948C114.86 17.26 114.712 17.712 114.712 18.304V22H113.344V15.388H114.712V16.144C114.936 15.872 115.22 15.66 115.564 15.508C115.916 15.356 116.288 15.28 116.68 15.28ZM120.681 18.664C120.681 18 120.817 17.412 121.089 16.9C121.369 16.388 121.745 15.992 122.217 15.712C122.697 15.424 123.229 15.28 123.813 15.28C124.245 15.28 124.669 15.376 125.085 15.568C125.509 15.752 125.845 16 126.093 16.312V13.12H127.473V22H126.093V21.004C125.869 21.324 125.557 21.588 125.157 21.796C124.765 22.004 124.313 22.108 123.801 22.108C123.225 22.108 122.697 21.964 122.217 21.676C121.745 21.38 121.369 20.972 121.089 20.452C120.817 19.924 120.681 19.328 120.681 18.664ZM126.093 18.688C126.093 18.232 125.997 17.836 125.805 17.5C125.621 17.164 125.377 16.908 125.073 16.732C124.769 16.556 124.441 16.468 124.089 16.468C123.737 16.468 123.409 16.556 123.105 16.732C122.801 16.9 122.553 17.152 122.361 17.488C122.177 17.816 122.085 18.208 122.085 18.664C122.085 19.12 122.177 19.52 122.361 19.864C122.553 20.208 122.801 20.472 123.105 20.656C123.417 20.832 123.745 20.92 124.089 20.92C124.441 20.92 124.769 20.832 125.073 20.656C125.377 20.48 125.621 20.224 125.805 19.888C125.997 19.544 126.093 19.144 126.093 18.688ZM135.33 18.532C135.33 18.78 135.314 19.004 135.282 19.204H130.23C130.27 19.732 130.466 20.156 130.818 20.476C131.17 20.796 131.602 20.956 132.114 20.956C132.85 20.956 133.37 20.648 133.674 20.032H135.15C134.95 20.64 134.586 21.14 134.058 21.532C133.538 21.916 132.89 22.108 132.114 22.108C131.482 22.108 130.914 21.968 130.41 21.688C129.914 21.4 129.522 21 129.234 20.488C128.954 19.968 128.814 19.368 128.814 18.688C128.814 18.008 128.95 17.412 129.222 16.9C129.502 16.38 129.89 15.98 130.386 15.7C130.89 15.42 131.466 15.28 132.114 15.28C132.738 15.28 133.294 15.416 133.782 15.688C134.27 15.96 134.65 16.344 134.922 16.84C135.194 17.328 135.33 17.892 135.33 18.532ZM133.902 18.1C133.894 17.596 133.714 17.192 133.362 16.888C133.01 16.584 132.574 16.432 132.054 16.432C131.582 16.432 131.178 16.584 130.842 16.888C130.506 17.184 130.306 17.588 130.242 18.1H133.902ZM138.044 16.348C138.244 16.012 138.508 15.752 138.836 15.568C139.172 15.376 139.568 15.28 140.024 15.28V16.696H139.676C139.14 16.696 138.732 16.832 138.452 17.104C138.18 17.376 138.044 17.848 138.044 18.52V22H136.676V15.388H138.044V16.348Z" fill="white"/>
</svg>
