<svg width="35" height="35" viewBox="0 0 35 35" fill="none" xmlns="http://www.w3.org/2000/svg">
<g id="svgexport-17 (24) 1">
<g id="Group">
<path id="Vector" d="M7.53416 16.1823H2.69963C2.32843 16.1818 1.97219 16.3286 1.70911 16.5905C1.44602 16.8523 1.29759 17.2079 1.29639 17.5791V28.3493C1.29724 28.7212 1.44536 29.0777 1.70833 29.3406C1.97131 29.6036 2.32773 29.7517 2.69963 29.7526H7.53481C7.9066 29.7516 8.26286 29.6034 8.52569 29.3404C8.78852 29.0775 8.93655 28.7211 8.93741 28.3493V17.5791C8.9362 17.2079 8.78777 16.8523 8.52469 16.5905C8.2616 16.3286 7.90536 16.1818 7.53416 16.1823ZM4.87546 27.6046C4.70823 27.6055 4.54247 27.5733 4.38772 27.5099C4.23296 27.4465 4.09225 27.3532 3.97367 27.2353C3.85509 27.1173 3.76096 26.9772 3.69671 26.8228C3.63246 26.6684 3.59934 26.5028 3.59926 26.3356C3.59926 25.6304 4.17028 25.06 4.87546 25.06C5.57352 25.06 6.14453 25.6304 6.14453 26.3356C6.14453 27.0407 5.57416 27.6046 4.87546 27.6046ZM33.661 22.8699C33.6138 22.6568 33.5218 22.4562 33.391 22.2814C33.2603 22.1066 33.0938 21.9617 32.9027 21.8562C32.7133 21.7465 32.5026 21.6783 32.2848 21.6563C32.067 21.6343 31.847 21.6589 31.6394 21.7285L21.4875 25.0522C21.1575 25.1684 20.8101 25.2276 20.4602 25.2272H15.3366C15.2703 25.2278 15.2045 25.2152 15.1431 25.1901C15.0818 25.165 15.026 25.128 14.9791 25.0811C14.9322 25.0342 14.8952 24.9784 14.8701 24.917C14.845 24.8557 14.8324 24.7899 14.833 24.7236C14.833 24.4481 15.0546 24.22 15.3366 24.22H20.4602C20.6948 24.22 20.9165 24.1863 21.1317 24.1124C21.1381 24.1124 21.1446 24.1059 21.1511 24.1059L21.1582 24.0994C21.563 23.9552 21.9132 23.6893 22.1609 23.3382C22.4085 22.987 22.5414 22.5678 22.5414 22.1381C22.5422 21.5853 22.3235 21.0547 21.9332 20.663C21.5429 20.2714 21.0131 20.0508 20.4602 20.0498H17.1293C16.7368 20.0499 16.3487 19.9674 15.9902 19.8077C15.6316 19.6481 15.3107 19.4148 15.0481 19.123L14.343 18.3445C14.1724 18.1582 13.9649 18.0094 13.7337 17.9076C13.5025 17.8059 13.2526 17.7534 13 17.7534H9.94463V28.35C9.94463 28.525 9.92518 28.6922 9.89083 28.8536L14.5983 31.5324C15.5654 32.0807 16.6587 32.3672 17.7704 32.3638C18.882 32.3604 19.9735 32.0671 20.9372 31.513L32.915 24.583C33.2083 24.4172 33.4397 24.1604 33.5742 23.8515C33.7086 23.5425 33.7389 23.1982 33.6604 22.8706L33.661 22.8699ZM17.0691 10.5084C15.7669 11.3103 14.7588 12.5116 14.1952 13.9332H9.48833C8.56796 13.9332 7.9237 13.0129 8.24583 12.1534C8.62012 11.1538 9.29065 10.2922 10.1678 9.6839C11.0449 9.07559 12.0868 8.74955 13.1543 8.74935C13.8944 8.74678 14.6266 8.90239 15.3018 9.20576C15.977 9.50914 16.5795 9.95327 17.0691 10.5084ZM15.6444 5.12685C15.6444 6.50222 14.5309 7.61574 13.1549 7.61574C11.7789 7.61574 10.666 6.50222 10.666 5.12685C10.666 3.75083 11.7789 2.63731 13.1549 2.63731C14.5309 2.63731 15.6438 3.75083 15.6438 5.1262L15.6444 5.12685ZM32.204 13.9332H27.4232C26.866 12.5289 25.8757 11.3388 24.596 10.5356C25.0884 9.97315 25.6956 9.52268 26.3767 9.21455C27.0578 8.90643 27.797 8.7478 28.5445 8.74935C30.7871 8.74935 32.7005 10.1662 33.4458 12.1534C33.5188 12.3534 33.5425 12.5681 33.515 12.7792C33.4875 12.9903 33.4095 13.1916 33.2877 13.3662C33.1659 13.5408 33.0038 13.6835 32.8151 13.7822C32.6265 13.8809 32.4169 13.9327 32.204 13.9332ZM31.0302 5.12685C31.0302 6.50222 29.916 7.61574 28.5406 7.61574C27.1653 7.61574 26.0511 6.50222 26.0511 5.12685C26.051 4.79995 26.1153 4.47624 26.2404 4.1742C26.3654 3.87215 26.5487 3.59771 26.7799 3.36652C27.011 3.13534 27.2854 2.95195 27.5874 2.82683C27.8894 2.70171 28.2131 2.63731 28.54 2.63731C28.867 2.63714 29.1907 2.7014 29.4929 2.8264C29.795 2.9514 30.0695 3.1347 30.3007 3.36583C30.532 3.59697 30.7154 3.8714 30.8406 4.17345C30.9658 4.4755 31.0302 4.7999 31.0302 5.12685ZM25.0867 16.4928C26.1587 16.4928 26.908 15.4194 26.5327 14.4148C25.6674 12.097 23.4339 10.4443 20.8147 10.4443C18.1891 10.4443 15.9536 12.097 15.0877 14.4148C14.7131 15.4194 15.4617 16.4928 16.5337 16.4928H25.0867ZM23.7145 6.11268C23.7145 7.71815 22.415 9.01704 20.8108 9.01704C19.2067 9.01704 17.9058 7.71815 17.9058 6.11333C17.9058 4.50787 19.2054 3.20898 20.8102 3.20898C22.415 3.20898 23.7145 4.50787 23.7145 6.11268Z" fill="#696969"/>
</g>
</g>
</svg>
