<svg width="16" height="18" viewBox="0 0 16 18" fill="none" xmlns="http://www.w3.org/2000/svg">
<g id="Group">
<path id="Vector" d="M14.7776 14.7123V11.9367C14.7776 11.3403 14.2941 10.8568 13.6978 10.8568H13.4155V0.723466C13.4155 0.678845 13.4044 0.634921 13.3833 0.59562C13.3621 0.55632 13.3316 0.522869 13.2944 0.49826L12.6089 0.0452002C12.4294 -0.0734177 12.1901 0.055259 12.1901 0.270406V3.52488L11.9859 2.97388C11.7112 2.23282 11.0043 1.741 10.214 1.741H5.49465C4.69965 1.741 3.98967 2.23853 3.71835 2.98579L3.52261 3.52488V0.270406C3.52261 0.0552884 3.28329 -0.0734177 3.10379 0.0452002L2.41832 0.49823C2.38109 0.522833 2.35054 0.556281 2.3294 0.595583C2.30826 0.634884 2.2972 0.678812 2.2972 0.723437V10.8568H2.01493C1.41855 10.8568 0.93508 11.3403 0.93508 11.9367V14.7123H0.47502C0.439568 14.7123 0.404464 14.7193 0.371711 14.7329C0.338958 14.7465 0.309199 14.7664 0.284132 14.7914C0.259065 14.8165 0.239182 14.8463 0.225618 14.879C0.212054 14.9118 0.205074 14.9469 0.205078 14.9823V16.4748C0.205078 16.5464 0.233517 16.615 0.28414 16.6656C0.334763 16.7163 0.403424 16.7447 0.47502 16.7447H1.63967V17.4601C1.63967 17.7583 1.8814 18 2.17961 18H3.61035C3.90856 18 4.15029 17.7583 4.15029 17.4601V16.7447H11.5625V17.4601C11.5625 17.7583 11.8042 18 12.1024 18H13.5332C13.8314 18 14.0731 17.7583 14.0731 17.4601V16.7447H15.2377C15.3868 16.7447 15.5077 16.6238 15.5077 16.4748V14.9823C15.5077 14.9469 15.5007 14.9118 15.4872 14.879C15.4736 14.8463 15.4537 14.8165 15.4286 14.7914C15.4036 14.7664 15.3738 14.7465 15.341 14.7329C15.3083 14.7194 15.2732 14.7124 15.2377 14.7124L14.7776 14.7123ZM3.88029 5.02868H11.8324V7.68869H3.88029V5.02868ZM3.69538 13.9569H2.77311C2.49132 13.9569 2.26288 13.7284 2.26288 13.4466V13.4337C2.26288 13.1519 2.49132 12.9235 2.77311 12.9235H3.69535C3.97714 12.9235 4.20559 13.1519 4.20559 13.4337V13.4466C4.20562 13.7284 3.97717 13.9569 3.69538 13.9569ZM9.6916 14.1073H6.02112C5.72291 14.1073 5.48118 13.8656 5.48118 13.5674V10.1464C5.48118 9.84819 5.72291 9.60645 6.02112 9.60645H9.6916C9.98977 9.60645 10.2315 9.84822 10.2315 10.1464V13.5674C10.2315 13.8656 9.98977 14.1073 9.6916 14.1073ZM12.9396 13.9569H12.0173C11.7356 13.9569 11.5071 13.7284 11.5071 13.4466V13.4337C11.5071 13.1519 11.7356 12.9235 12.0173 12.9235H12.9396C13.2214 12.9235 13.4498 13.1519 13.4498 13.4337V13.4466C13.4498 13.7284 13.2214 13.9569 12.9396 13.9569ZM9.60951 11.5824H6.09456C6.05946 11.5824 6.0247 11.5755 5.99228 11.5621C5.95985 11.5486 5.93038 11.5289 5.90556 11.5041C5.88075 11.4793 5.86106 11.4498 5.84763 11.4174C5.8342 11.385 5.82729 11.3502 5.82729 11.3151V11.3097C5.82729 11.2746 5.83421 11.2398 5.84764 11.2074C5.86107 11.175 5.88076 11.1455 5.90558 11.1207C5.9304 11.0959 5.95986 11.0762 5.99228 11.0628C6.02471 11.0494 6.05946 11.0425 6.09456 11.0425H9.60951C9.6446 11.0425 9.67936 11.0494 9.71178 11.0628C9.74421 11.0762 9.77367 11.0959 9.79849 11.1207C9.82331 11.1455 9.843 11.175 9.85643 11.2074C9.86986 11.2398 9.87677 11.2746 9.87677 11.3097V11.3151C9.87678 11.3502 9.86987 11.385 9.85644 11.4174C9.84301 11.4498 9.82332 11.4793 9.7985 11.5041C9.77369 11.5289 9.74422 11.5486 9.71179 11.5621C9.67937 11.5755 9.64461 11.5824 9.60951 11.5824ZM9.60951 10.5025H6.09456C6.02368 10.5025 5.9557 10.4744 5.90558 10.4242C5.85545 10.3741 5.82729 10.3061 5.82729 10.2352V10.2298C5.82729 10.1947 5.83421 10.16 5.84764 10.1276C5.86107 10.0951 5.88076 10.0657 5.90558 10.0409C5.9304 10.016 5.95986 9.99636 5.99228 9.98294C6.02471 9.96951 6.05946 9.9626 6.09456 9.9626H9.60951C9.6446 9.9626 9.67936 9.96951 9.71178 9.98294C9.74421 9.99636 9.77367 10.016 9.79849 10.0409C9.82331 10.0657 9.843 10.0951 9.85643 10.1276C9.86986 10.16 9.87677 10.1947 9.87677 10.2298V10.2352C9.87677 10.3061 9.84861 10.3741 9.79849 10.4242C9.74837 10.4744 9.68039 10.5025 9.60951 10.5025ZM9.60951 13.7421H6.09456C6.02368 13.7421 5.9557 13.714 5.90558 13.6639C5.85545 13.6137 5.82729 13.5458 5.82729 13.4749V13.4695C5.82729 13.3986 5.85545 13.3306 5.90558 13.2805C5.9557 13.2304 6.02368 13.2022 6.09456 13.2022H9.60951C9.68039 13.2022 9.74837 13.2304 9.79849 13.2805C9.84861 13.3306 9.87677 13.3986 9.87677 13.4695V13.4749C9.87677 13.5458 9.84861 13.6137 9.79849 13.6639C9.74837 13.714 9.68039 13.7421 9.60951 13.7421ZM9.60951 12.6623H6.09456C6.05946 12.6623 6.02471 12.6553 5.99228 12.6419C5.95986 12.6285 5.9304 12.6088 5.90558 12.584C5.88076 12.5592 5.86107 12.5297 5.84764 12.4973C5.83421 12.4649 5.82729 12.4301 5.82729 12.395V12.3896C5.82729 12.3187 5.85545 12.2507 5.90558 12.2006C5.9557 12.1505 6.02368 12.1223 6.09456 12.1223H9.60951C9.68039 12.1223 9.74837 12.1505 9.79849 12.2006C9.84861 12.2507 9.87677 12.3187 9.87677 12.3896V12.395C9.87677 12.4301 9.86986 12.4649 9.85643 12.4973C9.843 12.5297 9.82331 12.5592 9.79849 12.584C9.77367 12.6088 9.74421 12.6285 9.71178 12.6419C9.67936 12.6553 9.6446 12.6623 9.60951 12.6623Z" fill="#6AB716"/>
</g>
</svg>
