<svg width="15" height="16" viewBox="0 0 15 16" fill="none" xmlns="http://www.w3.org/2000/svg">
<g id="svgexport-17 (23) 1" clip-path="url(#clip0_71_2623)">
<g id="Group">
<path id="Vector" d="M11.1298 6.0861C10.8963 6.97897 10.3513 7.17565 10.0605 7.21511C9.88144 7.57319 9.48774 8.305 9.0939 8.67269C8.93648 8.81962 8.73191 8.94362 8.48589 9.04127C8.1718 9.16589 7.84007 9.2291 7.50003 9.2291C7.16 9.2291 6.82827 9.16589 6.51417 9.04127C6.26822 8.94369 6.06358 8.81968 5.90616 8.67269C5.51226 8.30507 5.11856 7.57319 4.93945 7.21511C4.64875 7.17565 4.10381 6.97904 3.87028 6.0861C3.74538 5.60861 3.77736 5.21937 3.96539 4.92916C4.03679 4.81841 4.13156 4.72462 4.24305 4.65439C4.24332 4.55907 4.2473 4.43973 4.25835 4.30399C4.08947 4.06929 3.85985 3.56291 4.14423 2.74326C4.4448 1.87674 5.12439 1.74293 5.45241 1.73133C5.56331 1.52518 5.77282 1.2325 6.15328 0.963421C6.57559 0.664561 7.12706 0.5 7.70604 0.5C8.4185 0.5 9.13542 0.750754 9.77925 1.22515C10.8231 1.9943 10.7337 3.70044 10.7081 4.01021C10.746 4.26988 10.7565 4.49511 10.7569 4.65432C10.8684 4.72456 10.9632 4.81834 11.0346 4.92909C11.2226 5.21937 11.2546 5.60854 11.1298 6.0861ZM14.1826 12.7351V15.1569C14.1826 15.2479 14.1465 15.3352 14.0821 15.3995C14.0178 15.4638 13.9305 15.5 13.8395 15.5H1.1605C1.0695 15.5 0.982229 15.4638 0.917881 15.3995C0.853533 15.3352 0.817383 15.2479 0.817383 15.1569V12.7351C0.817383 11.7429 1.41263 10.8637 2.33385 10.4951L5.33376 9.29518C5.37649 9.27809 5.42223 9.26977 5.46824 9.27072C5.51425 9.27166 5.5596 9.28186 5.6016 9.3007C5.64359 9.31953 5.68136 9.34663 5.71266 9.38037C5.74396 9.4141 5.76816 9.45379 5.7838 9.49708L6.53799 11.5821L6.68731 11.1528L6.44973 10.572C6.42844 10.5199 6.42028 10.4634 6.426 10.4073C6.43171 10.3513 6.45111 10.2976 6.48249 10.2509C6.51387 10.2041 6.55626 10.1658 6.60594 10.1393C6.65561 10.1129 6.71103 10.099 6.76733 10.099H8.23273C8.28903 10.099 8.34447 10.1128 8.39415 10.1393C8.44383 10.1658 8.48624 10.2041 8.51762 10.2508C8.549 10.2976 8.5684 10.3513 8.5741 10.4073C8.57981 10.4633 8.57164 10.5199 8.55033 10.572L8.31275 11.1528L8.46208 11.5821L9.21626 9.49708C9.2319 9.4538 9.25609 9.41411 9.28739 9.38038C9.31869 9.34665 9.35647 9.31956 9.39846 9.30074C9.44046 9.28193 9.48581 9.27174 9.53181 9.27079C9.57782 9.26983 9.62356 9.27813 9.6663 9.29518L12.6662 10.4951C13.5874 10.8637 14.1826 11.7429 14.1826 12.7351ZM12.3561 12.9984C12.3561 12.9074 12.32 12.8201 12.2556 12.7557C12.1913 12.6914 12.104 12.6552 12.013 12.6552H9.70926C9.61826 12.6552 9.53098 12.6914 9.46663 12.7557C9.40229 12.8201 9.36613 12.9074 9.36613 12.9984V14.0682C9.36613 14.1592 9.40229 14.2465 9.46663 14.3108C9.53098 14.3752 9.61826 14.4113 9.70926 14.4113H12.013C12.104 14.4113 12.1913 14.3752 12.2556 14.3108C12.32 14.2465 12.3561 14.1592 12.3561 14.0682V12.9984Z" fill="#6AB716"/>
</g>
</g>
<defs>
<clipPath id="clip0_71_2623">
<rect width="15" height="15" fill="white" transform="translate(0 0.5)"/>
</clipPath>
</defs>
</svg>
