<svg width="16" height="16" viewBox="0 0 16 16" fill="none" xmlns="http://www.w3.org/2000/svg">
<g id="Group">
<path id="Vector" d="M10.8495 0.29994C10.8444 0.299904 10.8393 0.29994 10.8342 0.300048C10.4843 0.29404 10.1958 0.572852 10.1898 0.922751C10.1897 0.929334 10.1897 0.935918 10.1897 0.942501V2.42261H11.4849V0.942501C11.4868 0.589616 11.2024 0.301955 10.8495 0.29994Z" fill="#6AB716"/>
<path id="Vector_2" d="M12.3595 1.883H12.0604V2.71842C12.0612 2.75537 12.0544 2.79209 12.0406 2.82637C12.0268 2.86066 12.0062 2.8918 11.9801 2.91793C11.954 2.94406 11.9228 2.96465 11.8886 2.97845C11.8543 2.99225 11.8176 2.99898 11.7806 2.99824H9.8875C9.85088 2.99885 9.81452 2.99198 9.78065 2.97804C9.74678 2.96411 9.71611 2.94342 9.69052 2.91722C9.66492 2.89103 9.64494 2.85989 9.6318 2.8257C9.61866 2.79152 9.61263 2.75502 9.61408 2.71842V1.883H4.72139V2.71842C4.71904 2.79482 4.6865 2.86717 4.6309 2.91962C4.5753 2.97207 4.50118 3.00034 4.42477 2.99824H2.53174C2.45609 3.00019 2.38277 2.97202 2.32789 2.91992C2.27301 2.86781 2.24108 2.79605 2.23911 2.7204L2.23907 2.71842V1.883H1.97088C1.3236 1.88627 0.800481 2.41169 0.800049 3.05897V4.29336H13.5354V3.05897C13.5326 2.41069 13.0078 1.88584 12.3595 1.883Z" fill="#6AB716"/>
<path id="Vector_3" d="M3.47829 0.300049C3.11505 0.300049 2.81469 0.579328 2.81469 0.942502V2.42261H4.14578V0.942502C4.14578 0.579328 3.8415 0.300049 3.47829 0.300049ZM0.800049 4.86896V12.7445C0.800049 13.3899 1.32529 13.9348 1.97088 13.9348H7.30358C6.85004 13.1736 6.60986 12.3043 6.60828 11.4183C6.60828 8.73447 8.79301 6.54118 11.4768 6.54118C12.1879 6.54291 12.8902 6.69857 13.5354 6.99745V4.86896H0.800049Z" fill="#6AB716"/>
<path id="Vector_4" d="M11.4741 7.11676C9.10393 7.1168 7.18258 9.03822 7.18262 11.4084C7.18265 13.7786 9.10408 15.6999 11.4743 15.6999C13.8444 15.6999 15.7658 13.7785 15.7658 11.4083C15.7631 9.03923 13.8432 7.11939 11.4741 7.11676ZM13.1689 12.0641H11.2398C11.1621 12.0627 11.0879 12.0311 11.0329 11.9761C10.978 11.921 10.9466 11.8468 10.9453 11.7691V9.24501C10.9453 9.16868 10.9756 9.09547 11.0296 9.0415C11.0835 8.98752 11.1567 8.9572 11.2331 8.9572C11.3094 8.9572 11.3826 8.98752 11.4366 9.0415C11.4906 9.09547 11.5209 9.16868 11.5209 9.24501V11.4884H13.1689C13.2453 11.4884 13.3185 11.5188 13.3724 11.5727C13.4264 11.6267 13.4567 11.6999 13.4567 11.7763C13.4567 11.8526 13.4264 11.9258 13.3724 11.9798C13.3185 12.0337 13.2453 12.0641 13.1689 12.0641Z" fill="#6AB716"/>
</g>
</svg>
