<svg width="16" height="16" viewBox="0 0 16 16" fill="none" xmlns="http://www.w3.org/2000/svg">
<path d="M10.8495 0.299963C10.8444 0.299927 10.8393 0.299963 10.8342 0.300071C10.4843 0.294063 10.1958 0.572874 10.1898 0.922774C10.1897 0.929357 10.1897 0.935941 10.1897 0.942524V2.42263H11.4849V0.942524C11.4868 0.589639 11.2024 0.301978 10.8495 0.299963Z" fill="#2D3748"/>
<path d="M12.3595 1.88298H12.0604V2.71841C12.0612 2.75536 12.0544 2.79208 12.0406 2.82636C12.0268 2.86064 12.0062 2.89179 11.9801 2.91792C11.954 2.94405 11.9228 2.96463 11.8886 2.97844C11.8543 2.99224 11.8176 2.99897 11.7806 2.99823H9.8875C9.85088 2.99884 9.81452 2.99196 9.78065 2.97803C9.74678 2.9641 9.71611 2.94341 9.69052 2.91721C9.66492 2.89102 9.64494 2.85988 9.6318 2.82569C9.61866 2.79151 9.61263 2.755 9.61408 2.71841V1.88298H4.72139V2.71841C4.71904 2.79481 4.6865 2.86716 4.6309 2.91961C4.5753 2.97206 4.50118 3.00033 4.42477 2.99823H2.53174C2.45609 3.00018 2.38277 2.97201 2.32789 2.91991C2.27301 2.8678 2.24108 2.79604 2.23911 2.72039L2.23907 2.71841V1.88298H1.97088C1.3236 1.88626 0.800481 2.41168 0.800049 3.05896V4.29335H13.5354V3.05896C13.5326 2.41068 13.0078 1.88583 12.3595 1.88298Z" fill="#2D3748"/>
<path d="M3.47829 0.300087C3.11505 0.300087 2.81469 0.579366 2.81469 0.94254V2.42265H4.14578V0.94254C4.14578 0.579366 3.8415 0.300087 3.47829 0.300087ZM0.800049 4.86899V12.7445C0.800049 13.39 1.32529 13.9349 1.97088 13.9349H7.30358C6.85004 13.1737 6.60986 12.3044 6.60828 11.4183C6.60828 8.73451 8.79301 6.54121 11.4768 6.54121C12.1879 6.54295 12.8902 6.69861 13.5354 6.99749V4.86899H0.800049Z" fill="#2D3748"/>
<path d="M11.4741 7.11675C9.10393 7.11678 7.18258 9.03821 7.18262 11.4084C7.18265 13.7786 9.10408 15.6999 11.4743 15.6999C13.8444 15.6999 15.7658 13.7785 15.7658 11.4083C15.7631 9.03922 13.8432 7.11938 11.4741 7.11675ZM13.1689 12.064H11.2398C11.1621 12.0626 11.0879 12.0311 11.0329 11.9761C10.978 11.921 10.9466 11.8468 10.9453 11.769V9.245C10.9453 9.16867 10.9756 9.09546 11.0296 9.04149C11.0835 8.98751 11.1567 8.95719 11.2331 8.95719C11.3094 8.95719 11.3826 8.98751 11.4366 9.04149C11.4906 9.09546 11.5209 9.16867 11.5209 9.245V11.4884H13.1689C13.2453 11.4884 13.3185 11.5188 13.3724 11.5727C13.4264 11.6267 13.4567 11.6999 13.4567 11.7762C13.4567 11.8526 13.4264 11.9258 13.3724 11.9798C13.3185 12.0337 13.2453 12.064 13.1689 12.064Z" fill="#2D3748"/>
</svg>
