<svg width="19" height="18" viewBox="0 0 19 18" fill="none" xmlns="http://www.w3.org/2000/svg">
<g id="Group">
<path id="Vector" d="M14.5234 0.240267C14.6295 0.304565 14.7281 0.380691 14.817 0.467186L18.0406 3.69077C18.1271 3.77976 18.2033 3.87828 18.2675 3.98443H15.5245C15.259 3.98443 15.0044 3.87895 14.8166 3.69121C14.6289 3.50346 14.5234 3.24883 14.5234 2.98331V0.240267ZM18.5278 4.65184H15.5245C15.082 4.65184 14.6576 4.47605 14.3447 4.16314C14.0318 3.85023 13.856 3.42583 13.856 2.98331V4.3312e-09H6.18078C5.74171 -3.161e-05 5.32032 0.173007 5.00799 0.481598C4.69565 0.790189 4.51753 1.20946 4.51226 1.6485V5.41268C4.84244 5.35122 5.17753 5.31994 5.51338 5.31924C7.01794 5.31924 8.46088 5.91693 9.52477 6.98082C10.5887 8.04471 11.1863 9.48765 11.1863 10.9922C11.1863 12.4968 10.5887 13.9397 9.52477 15.0036C8.46088 16.0675 7.01794 16.6652 5.51338 16.6652C5.18635 16.6648 4.86009 16.6335 4.53896 16.5717C4.59645 16.9669 4.79374 17.3283 5.09499 17.5904C5.39625 17.8524 5.7815 17.9978 6.18078 18H16.8593C17.3018 18 17.7262 17.8242 18.0391 17.5113C18.352 17.1984 18.5278 16.774 18.5278 16.3315V4.87208C18.5278 4.79867 18.5145 4.72525 18.5078 4.65184H18.5278ZM10.8526 5.31924H8.85042C8.76191 5.31924 8.67703 5.28409 8.61445 5.2215C8.55187 5.15892 8.51671 5.07404 8.51671 4.98554C8.51671 4.89704 8.55187 4.81216 8.61445 4.74958C8.67703 4.68699 8.76191 4.65184 8.85042 4.65184H10.8526C10.9411 4.65184 11.026 4.68699 11.0886 4.74958C11.1512 4.81216 11.1863 4.89704 11.1863 4.98554C11.1863 5.07404 11.1512 5.15892 11.0886 5.2215C11.026 5.28409 10.9411 5.31924 10.8526 5.31924ZM16.1919 13.3281H12.1875C12.099 13.3281 12.0141 13.293 11.9515 13.2304C11.8889 13.1678 11.8538 13.0829 11.8538 12.9944C11.8538 12.9059 11.8889 12.8211 11.9515 12.7585C12.0141 12.6959 12.099 12.6607 12.1875 12.6607H16.1919C16.2804 12.6607 16.3653 12.6959 16.4279 12.7585C16.4905 12.8211 16.5256 12.9059 16.5256 12.9944C16.5256 13.0829 16.4905 13.1678 16.4279 13.2304C16.3653 13.293 16.2804 13.3281 16.1919 13.3281ZM16.1919 10.6585H12.8549C12.7664 10.6585 12.6815 10.6234 12.6189 10.5608C12.5563 10.4982 12.5212 10.4133 12.5212 10.3248C12.5212 10.2363 12.5563 10.1514 12.6189 10.0888C12.6815 10.0263 12.7664 9.9911 12.8549 9.9911H16.1919C16.2804 9.9911 16.3653 10.0263 16.4279 10.0888C16.4905 10.1514 16.5256 10.2363 16.5256 10.3248C16.5256 10.4133 16.4905 10.4982 16.4279 10.5608C16.3653 10.6234 16.2804 10.6585 16.1919 10.6585ZM16.1919 7.98888H12.1875C12.099 7.98888 12.0141 7.95372 11.9515 7.89114C11.8889 7.82856 11.8538 7.74368 11.8538 7.65517C11.8538 7.56667 11.8889 7.48179 11.9515 7.41921C12.0141 7.35663 12.099 7.32147 12.1875 7.32147H16.1919C16.2804 7.32147 16.3653 7.35663 16.4279 7.41921C16.4905 7.48179 16.5256 7.56667 16.5256 7.65517C16.5256 7.74368 16.4905 7.82856 16.4279 7.89114C16.3653 7.95372 16.2804 7.98888 16.1919 7.98888ZM5.51338 5.98665C4.52337 5.98665 3.5556 6.28022 2.73244 6.83024C1.90928 7.38026 1.2677 8.16202 0.88884 9.07667C0.509981 9.99132 0.410855 10.9978 0.603995 11.9687C0.797136 12.9397 1.27387 13.8316 1.97391 14.5317C2.67395 15.2317 3.56586 15.7085 4.53684 15.9016C5.50782 16.0947 6.51428 15.9956 7.42892 15.6167C8.34357 15.2379 9.12533 14.5963 9.67535 13.7732C10.2254 12.95 10.5189 11.9822 10.5189 10.9922C10.5189 10.3349 10.3895 9.68397 10.1379 9.07667C9.88636 8.46937 9.51765 7.91756 9.05284 7.45275C8.58803 6.98794 8.03622 6.61923 7.42892 6.36768C6.82162 6.11612 6.17072 5.98665 5.51338 5.98665ZM5.84708 10.9922C5.84761 11.036 5.83898 11.0794 5.82174 11.1196C5.8045 11.1598 5.77903 11.196 5.74697 11.2258L4.74586 12.2269C4.7159 12.2588 4.67971 12.2843 4.63954 12.3017C4.59936 12.3191 4.55604 12.328 4.51226 12.328C4.46848 12.328 4.42517 12.3191 4.38499 12.3017C4.34482 12.2843 4.30863 12.2588 4.27867 12.2269C4.24675 12.197 4.22131 12.1608 4.20391 12.1206C4.18652 12.0804 4.17755 12.0371 4.17755 11.9933C4.17755 11.9495 4.18652 11.9062 4.20391 11.8661C4.22131 11.8259 4.24675 11.7897 4.27867 11.7597L5.17967 10.8521V8.98999C5.17967 8.90149 5.21483 8.81661 5.27741 8.75402C5.33999 8.69144 5.42487 8.65629 5.51338 8.65629C5.60188 8.65629 5.68676 8.69144 5.74934 8.75402C5.81192 8.81661 5.84708 8.90149 5.84708 8.98999V10.9922Z" fill="#2D3748"/>
</g>
</svg>
